<?xml version="1.0" encoding="UTF-8" standalone="no"?><!-- Generator: Gravit.io --><svg xmlns="http://www.w3.org/2000/svg" xmlns:xlink="http://www.w3.org/1999/xlink" style="isolation:isolate" viewBox="0 0 560 315" width="560pt" height="315pt"><path d=" M 238 101 L 244 102 L 242 108 L 238 101 Z " fill="none" vector-effect="non-scaling-stroke" stroke-width="1" stroke="rgb(255,255,255)" stroke-linejoin="miter" stroke-linecap="square" stroke-miterlimit="3"/><path d=" M 243 117 L 240 117 L 239 119 L 240 120 L 243 117 Z " fill="none" vector-effect="non-scaling-stroke" stroke-width="1" stroke="rgb(255,255,255)" stroke-linejoin="miter" stroke-linecap="square" stroke-miterlimit="3"/><path d=" M 326 102 L 332 100 L 328 107 L 326 102 Z " fill="none" vector-effect="non-scaling-stroke" stroke-width="1" stroke="rgb(255,255,255)" stroke-linejoin="miter" stroke-linecap="square" stroke-miterlimit="3"/><path d=" M 271 121 L 257 111 L 247 99 L 242 111 L 235 118 L 235 123 L 224 130 L 233 138 L 249 133 L 249 146 L 266 166 L 285 171 L 305 166 L 320 144 L 320 133 L 334 138 L 347 133 L 334 121 L 334 115 L 327 108 L 322 97 L 314 109 L 296 121 L 303 133 L 303 147 L 285 171 L 268 148 L 266 136 L 274 119 L 270 110 L 275 87 L 281 99 L 285 101 L 289 99 L 295 87 L 300 110 L 296 119 L 290 134 L 279 134 L 274 119 L 271 121 Z " fill="none" vector-effect="non-scaling-stroke" stroke-width="1" stroke="rgb(255,255,255)" stroke-linejoin="miter" stroke-linecap="square" stroke-miterlimit="3"/><path d=" M 327 117 L 330 117 L 331 120 L 329 120 L 327 117 Z " fill="none" vector-effect="non-scaling-stroke" stroke-width="1" stroke="rgb(255,255,255)" stroke-linejoin="miter" stroke-linecap="square" stroke-miterlimit="3"/><path d=" M 278 109 L 278 114 L 280 116 L 282 115 L 278 109 Z " fill="none" vector-effect="non-scaling-stroke" stroke-width="1" stroke="rgb(255,255,255)" stroke-linejoin="miter" stroke-linecap="square" stroke-miterlimit="3"/><path d=" M 292 109 L 292 114 L 290 116 L 288 115 L 292 109 Z " fill="none" vector-effect="non-scaling-stroke" stroke-width="1" stroke="rgb(255,255,255)" stroke-linejoin="miter" stroke-linecap="square" stroke-miterlimit="3"/></svg>