<?xml version="1.0" encoding="UTF-8" standalone="no"?><!-- Generator: Gravit.io --><svg xmlns="http://www.w3.org/2000/svg" xmlns:xlink="http://www.w3.org/1999/xlink" style="isolation:isolate" viewBox="0 0 200 150" width="200pt" height="150pt"><path d=" M 50.375 51 L 56.375 52 L 54.375 58 L 50.375 51 Z " id="EarLeft" fill="none" vector-effect="non-scaling-stroke" stroke-width="1" stroke="rgb(0,0,0)" stroke-linejoin="miter" stroke-linecap="square" stroke-miterlimit="3"/><path d=" M 55.375 67 L 52.375 67 L 51.375 69 L 52.375 70 L 55.375 67 Z " id="EyeLeft" fill="none" vector-effect="non-scaling-stroke" stroke-width="1" stroke="rgb(0,0,0)" stroke-linejoin="miter" stroke-linecap="square" stroke-miterlimit="3"/><path d=" M 138.375 52 L 144.375 50 L 140.375 57 L 138.375 52 Z " id="EarRight" fill="none" vector-effect="non-scaling-stroke" stroke-width="1" stroke="rgb(0,0,0)" stroke-linejoin="miter" stroke-linecap="square" stroke-miterlimit="3"/><path d=" M 83.375 71 L 69.375 61 L 59.375 49 L 54.375 61 L 47.375 68 L 47.375 73 L 36.375 80 L 45.375 88 L 61.375 83 L 61.375 96 L 78.375 116 L 97.375 121 L 117.375 116 L 132.375 94 L 132.375 83 L 146.375 88 L 159.375 83 L 146.375 71 L 146.375 65 L 139.375 58 L 134.375 47 L 126.375 59 L 108.375 71 L 115.375 83 L 115.375 97 L 97.375 121 L 80.375 98 L 78.375 86 L 86.375 69 L 82.375 60 L 87.375 37 L 93.375 49 L 97.375 51 L 101.375 49 L 107.375 37 L 112.375 60 L 108.375 69 L 102.375 84 L 91.375 84 L 86.375 69 L 83.375 71 Z " id="Logo" fill="none" vector-effect="non-scaling-stroke" stroke-width="1" stroke="rgb(0,0,0)" stroke-linejoin="miter" stroke-linecap="square" stroke-miterlimit="3"/><path d=" M 139.375 67 L 142.375 67 L 143.375 70 L 141.375 70 L 139.375 67 Z " id="EyeRight" fill="none" vector-effect="non-scaling-stroke" stroke-width="1" stroke="rgb(0,0,0)" stroke-linejoin="miter" stroke-linecap="square" stroke-miterlimit="3"/><path d=" M 90.375 59 L 90.375 64 L 92.375 66 L 94.375 65 L 90.375 59 Z " id="EyeMidLeft" fill="none" vector-effect="non-scaling-stroke" stroke-width="1" stroke="rgb(0,0,0)" stroke-linejoin="miter" stroke-linecap="square" stroke-miterlimit="3"/><path d=" M 104.375 59 L 104.375 64 L 102.375 66 L 100.375 65 L 104.375 59 Z " id="EyeMidRight" fill="none" vector-effect="non-scaling-stroke" stroke-width="1" stroke="rgb(0,0,0)" stroke-linejoin="miter" stroke-linecap="square" stroke-miterlimit="3"/></svg>